<svg xmlns="http://www.w3.org/2000/svg" viewBox="0 0 554.45 271.75">
    <path d="M197.55,228.05a11.9,11.9,0,0,0-3.43-4.27,13.3,13.3,0,0,0-5.07-2.34,27,27,0,0,0-6.3-.7,29.15,29.15,0,0,0-5.39.52,15.66,15.66,0,0,0-5.08,1.86,11.37,11.37,0,0,0-3.74,3.53,9.85,9.85,0,0,0-1.47,5.57,8.85,8.85,0,0,0,1.5,5.39,11.39,11.39,0,0,0,3.92,3.29,22.81,22.81,0,0,0,5.5,2l6.3,1.47c2.33.61,4.54,1.19,6.61,1.75a21,21,0,0,1,5.43,2.24A10.52,10.52,0,0,1,200,252a12.22,12.22,0,0,1,1.37,6.23,11.52,11.52,0,0,1-1.54,6.09,13,13,0,0,1-4.06,4.16,17.52,17.52,0,0,1-5.67,2.38,28,28,0,0,1-6.37.74,30.15,30.15,0,0,1-7.88-1,16.55,16.55,0,0,1-6.23-3.12,14,14,0,0,1-4.06-5.49,19.94,19.94,0,0,1-1.36-8.12h1.4a19.21,19.21,0,0,0,1.33,7.59,12.89,12.89,0,0,0,3.74,5.08,15,15,0,0,0,5.74,2.83,28.47,28.47,0,0,0,7.32.88,25.65,25.65,0,0,0,5.84-.67,16.39,16.39,0,0,0,5.22-2.13,11.74,11.74,0,0,0,3.74-3.78,10.24,10.24,0,0,0,1.44-5.53,9.79,9.79,0,0,0-1.65-6,11.77,11.77,0,0,0-4.2-3.5,23.52,23.52,0,0,0-5.67-2c-2.07-.44-4.07-.89-6-1.36s-4-1-6-1.47a22,22,0,0,1-5.43-2.14,10.94,10.94,0,0,1-3.88-3.64,10.69,10.69,0,0,1-1.47-5.91,11.57,11.57,0,0,1,1.54-6.2,11.69,11.69,0,0,1,4-4,17.41,17.41,0,0,1,5.49-2.1,29.84,29.84,0,0,1,6.06-.63,27.5,27.5,0,0,1,6.82.8,15.17,15.17,0,0,1,5.46,2.59,12.77,12.77,0,0,1,3.75,4.69,18.54,18.54,0,0,1,1.61,7.11H199A15.9,15.9,0,0,0,197.55,228.05Z"
          fill="#515151" stroke="#515151" stroke-miterlimit="10" stroke-width="0.25"/>
    <path d="M209.77,270.51h-1.4v-50h1.4v23.24h35V220.53h1.4v50h-1.4V245.17h-35Z" fill="#515151" stroke="#515151"
          stroke-miterlimit="10" stroke-width="0.25"/>
    <path d="M287.19,269.11v1.4H253.73v-50h33.18v1.4H255.13v21.84H285v1.4H255.13v23.94Z" fill="#515151" stroke="#515151"
          stroke-miterlimit="10" stroke-width="0.25"/>
    <path d="M342.73,228.05a12,12,0,0,0-3.43-4.27,13.3,13.3,0,0,0-5.07-2.34,27,27,0,0,0-6.3-.7,29.15,29.15,0,0,0-5.39.52,15.66,15.66,0,0,0-5.08,1.86,11.27,11.27,0,0,0-3.74,3.53,9.85,9.85,0,0,0-1.47,5.57,8.85,8.85,0,0,0,1.5,5.39,11.29,11.29,0,0,0,3.92,3.29,22.81,22.81,0,0,0,5.5,2l6.3,1.47,6.61,1.75a21,21,0,0,1,5.43,2.24,10.52,10.52,0,0,1,3.67,3.71,12.22,12.22,0,0,1,1.37,6.23,11.52,11.52,0,0,1-1.54,6.09,13,13,0,0,1-4.06,4.16,17.52,17.52,0,0,1-5.67,2.38,28,28,0,0,1-6.37.74,30.1,30.1,0,0,1-7.88-1,16.55,16.55,0,0,1-6.23-3.12,14,14,0,0,1-4.06-5.49,19.78,19.78,0,0,1-1.36-8.12h1.4a19.21,19.21,0,0,0,1.33,7.59,12.89,12.89,0,0,0,3.74,5.08,14.93,14.93,0,0,0,5.74,2.83,28.47,28.47,0,0,0,7.32.88,25.72,25.72,0,0,0,5.84-.67A16.39,16.39,0,0,0,340,267.5a11.84,11.84,0,0,0,3.74-3.78,10.24,10.24,0,0,0,1.44-5.53,9.79,9.79,0,0,0-1.65-6,12,12,0,0,0-4.2-3.5,23.52,23.52,0,0,0-5.67-2q-3.12-.66-6-1.36-3-.7-6-1.47a22,22,0,0,1-5.43-2.14,10.94,10.94,0,0,1-3.88-3.64,10.69,10.69,0,0,1-1.47-5.91,11.57,11.57,0,0,1,1.54-6.2,11.69,11.69,0,0,1,4-4,17.41,17.41,0,0,1,5.49-2.1,29.84,29.84,0,0,1,6.06-.63,27.56,27.56,0,0,1,6.82.8,15.17,15.17,0,0,1,5.46,2.59,12.87,12.87,0,0,1,3.75,4.69,18.54,18.54,0,0,1,1.61,7.11h-1.4A16.06,16.06,0,0,0,342.73,228.05Z"
          fill="#515151" stroke="#515151" stroke-miterlimit="10" stroke-width="0.25"/>
    <path d="M354.94,270.51h-1.39v-50h1.39v23.24h35V220.53h1.41v50h-1.41V245.17h-35Z" fill="#515151" stroke="#515151"
          stroke-miterlimit="10" stroke-width="0.25"/>
    <path d="M432.36,269.11v1.4H398.9v-50h33.18v1.4H400.3v21.84h29.89v1.4H400.3v23.94Z" fill="#515151" stroke="#515151"
          stroke-miterlimit="10" stroke-width="0.25"/>
    <path d="M454,220.53a25.9,25.9,0,0,1,7.53,1.15,17.37,17.37,0,0,1,6.86,4,20.9,20.9,0,0,1,5,7.67,33.24,33.24,0,0,1,1.92,12.18,30,30,0,0,1-2,11.48,20.42,20.42,0,0,1-12.74,12.11,27.55,27.55,0,0,1-8.75,1.4H436.49v-50Zm-1.82,48.58a24.3,24.3,0,0,0,8.37-1.44,19.13,19.13,0,0,0,6.93-4.34,20.33,20.33,0,0,0,4.69-7.35,29.07,29.07,0,0,0,1.71-10.46A32.42,32.42,0,0,0,472.12,234a19.11,19.11,0,0,0-4.62-7.25A15.88,15.88,0,0,0,461,223a26.34,26.34,0,0,0-7.39-1H437.89v47.18Z"
          fill="#515151" stroke="#515151" stroke-miterlimit="10" stroke-width="0.25"/>
    <path d="M111.48,208.64c-.13.45-.27.5-.41.48h-3c-1.14,0-2.28,0-3.42,0-2.28-.07-4.56-.15-6.83-.35a131.55,131.55,0,0,1-13.57-1.8,119.12,119.12,0,0,1-26.16-8,96,96,0,0,1-23.22-14.47,92.18,92.18,0,0,1-18-20.54,100.77,100.77,0,0,1-11.5-24.72,119.46,119.46,0,0,1-5-26.72A103.83,103.83,0,0,1,188.66,43.93a103.83,103.83,0,0,0-41.1-33.72A102.27,102.27,0,0,0,3.11,112.28a117.33,117.33,0,0,0,5.17,26,97.73,97.73,0,0,0,11.38,23.82,88.8,88.8,0,0,0,17.55,19.6,92.56,92.56,0,0,0,22.45,13.67A104.16,104.16,0,0,0,85,202.6,131.93,131.93,0,0,0,98.15,204c2.2.13,4.4.22,6.61.25,1.1,0,2.21,0,3.31,0l1.66,0,.82,0H111c.13,0,.27,0,.42.47Z"
          fill="#515151"/>
    <path d="M291.22,182.65c-10,5.21-31,13.8-40,13.8-1.4,0-2.6-1-2.6-5.2,0-11.2,4.4-21.6,4.4-31.6a46.22,46.22,0,0,0-2.8-15.6c36-2,66.2-58.8,161.4-96.19l-1.2-2c-95.4,38.19-126.8,94.79-161.2,96a22.08,22.08,0,0,0-5.2-7.61c2.4-2.8,4.4-5.39,6.8-8.39,18.8-23.81,33.2-37.61,53.4-55.41l-1.6-1.59c-31.2,27.79-40.2,37.79-73.8,52.59-20.6,9-48.2,18.8-72.2,31.41-13,6.79-39.8,26.59-50,53h0l-.59,1.79h0c-.08.21-.15.42-.22.64l-.68,2.07a54.3,54.3,0,0,0-2.3,16.09,25.14,25.14,0,0,0,4.8,14.8l1.2-.6a27.23,27.23,0,0,1-4-14.6,51.78,51.78,0,0,1,3.4-18.4c60-.2,95.6-26.2,129.2-65.4a27.64,27.64,0,0,0,9.8,1.8,21.8,21.8,0,0,1,.6,5.2c0,11.4-4.4,22.61-4.4,35.4,0,10.6.8,15.4,4.8,15.4,10.8,0,32.8-10.4,43-15.4.8-.4,1-.79,1-1.2C292.22,182.86,291.82,182.65,291.22,182.65Zm-56.4-42.2c-31.4,34.6-72.2,65.2-126,65.41,10-25,35.8-43.61,48.8-50.61,24-12.8,51.4-22.6,72-31.8,15-6.8,28.2-13.8,40.4-23.59l.4.39c-7,7-16.8,18-21.4,23.61-2.4,3-4.8,6-7.4,8.79a7.4,7.4,0,0,0-2.8-.79c-4,0-5.4,2.59-5.4,5.79A3.49,3.49,0,0,0,234.82,140.45Zm1.4-1.59a3.75,3.75,0,0,1-.4-1.41c0-2,.8-3.59,3-3.59a3.69,3.69,0,0,1,1.4.39Zm2.8,1.59,3.8-4.59a15.84,15.84,0,0,1,3.6,6A19.49,19.49,0,0,1,239,140.45Z"
          fill="#515151"/>
    <path d="M291.57,184.11l-1.14.62-.58.3-.68.33c-.92.45-1.84.89-2.77,1.31-1.84.86-3.7,1.68-5.58,2.48-3.74,1.59-7.52,3.08-11.37,4.44a105.28,105.28,0,0,1-11.78,3.51,34.54,34.54,0,0,1-6.3.85,3.59,3.59,0,0,1-2.36-.72,4.28,4.28,0,0,1-1.32-1.9,11.13,11.13,0,0,1-.56-3.46c-.12-8.46,2.26-16.4,3.6-24.21a42.92,42.92,0,0,0,.62-11.68,45.1,45.1,0,0,0-2.54-11.41l-.68-1.89,2-.12a40.16,40.16,0,0,0,11.1-2.41,60.71,60.71,0,0,0,10.41-5c1.69-.94,3.31-2,4.95-3.08s3.24-2.18,4.82-3.34c3.19-2.27,6.29-4.68,9.4-7.09,12.35-9.76,24.52-19.89,37.32-29.22q9.56-7,19.56-13.48c6.67-4.29,13.45-8.41,20.39-12.22l2.6-1.45,2.62-1.39,5.27-2.77c3.55-1.75,7.07-3.58,10.68-5.22,7.15-3.42,14.47-6.45,21.82-9.42l-.74,2.17-1.2-2,1.85.62a373.74,373.74,0,0,0-42.49,20.22c-6.88,3.79-13.58,7.87-20.19,12.1s-13.08,8.69-19.43,13.31c-12.73,9.21-24.88,19.2-37.3,29a192.8,192.8,0,0,1-19.45,13.75,64.9,64.9,0,0,1-10.87,5.26,38.91,38.91,0,0,1-12,2.5l-1,0-.42-.93a20.9,20.9,0,0,0-4.83-7.09l-1-1,.92-1.13,6.87-8.5q3.42-4.31,6.94-8.56c4.7-5.65,9.56-11.18,14.6-16.53s10.26-10.55,15.62-15.58,10.82-9.93,16.32-14.78l-.07,2.19-1.6-1.6,2.06.06c-7.6,6.75-15.1,13.62-22.79,20.32a190.46,190.46,0,0,1-24.45,18.6A213.49,213.49,0,0,1,229.08,123c-9.38,4.07-18.84,7.81-28.25,11.65s-18.79,7.73-28,12c-4.61,2.12-9.18,4.3-13.67,6.64a99.51,99.51,0,0,0-12.85,7.8,130.52,130.52,0,0,0-22.42,20.08,100.88,100.88,0,0,0-9,12A82.22,82.22,0,0,0,108,206.4l-.4,1h-1l1.42-1-.59,1.8-1.42-2h2.14l-.72,2a52.86,52.86,0,0,0-2.22,8.16,55.51,55.51,0,0,0-.86,8.45,28.54,28.54,0,0,0,.12,4.16,24,24,0,0,0,.78,4,22.32,22.32,0,0,0,3.55,7.32l0,0-1.86-.44a1.64,1.64,0,0,1,.5-.45.82.82,0,0,1,.64-.16h0l-.62,2.1a30.83,30.83,0,0,1-3.41-8.27,32.63,32.63,0,0,1-.76-8.88,53.77,53.77,0,0,1,3.46-17.14l.37-1h1a175.37,175.37,0,0,0,36.94-4,137.91,137.91,0,0,0,34.74-12.81A159.16,159.16,0,0,0,210.28,168a266.12,266.12,0,0,0,26-26.76l.69-.8,1,.37a26.1,26.1,0,0,0,9.26,1.7h1.17l.28,1.13a24.51,24.51,0,0,1,.61,7.09,62.44,62.44,0,0,1-.62,6.86c-.64,4.52-1.58,8.92-2.34,13.3a80.18,80.18,0,0,0-1.39,13.12c0,2.2,0,4.44.13,6.62a21.85,21.85,0,0,0,1,6.13,2.71,2.71,0,0,0,1.32,1.61,3.06,3.06,0,0,0,1.1.12l1.56-.09a41.18,41.18,0,0,0,6.36-1.22A113.89,113.89,0,0,0,269,193c4.14-1.63,8.23-3.41,12.29-5.27,2-.94,4.05-1.88,6.06-2.85l3-1.46a3,3,0,0,0,.48-.26c.08-.07,0,0-.08.2a.25.25,0,0,0,0,.17.82.82,0,0,0,.25.45.79.79,0,0,0,.31.18h0A1,1,0,0,0,291.57,184.11Zm-.71-2.91a2.19,2.19,0,0,1,.51,0h.2a2.2,2.2,0,0,1,.41.07,2.23,2.23,0,0,1,1,.55,2.11,2.11,0,0,1,.64,1.18,2.41,2.41,0,0,1,0,1,2.65,2.65,0,0,1-1,1.56,5.11,5.11,0,0,1-1,.58l-3,1.47c-2,1-4.06,1.93-6.11,2.88-4.1,1.87-8.23,3.67-12.44,5.33a117.36,117.36,0,0,1-12.92,4.35,46.05,46.05,0,0,1-6.83,1.3l-1.8.1a6.65,6.65,0,0,1-1.06,0,6.21,6.21,0,0,1-1.15-.28,4.75,4.75,0,0,1-1.95-1.43,6.51,6.51,0,0,1-1.07-1.85,23.76,23.76,0,0,1-1.23-7.08c-.12-2.3-.15-4.55-.13-6.83a83.08,83.08,0,0,1,1.43-13.61c.78-4.45,1.72-8.83,2.33-13.2a57.81,57.81,0,0,0,.59-6.53,21.3,21.3,0,0,0-.52-6.27l1.46,1.13a29.26,29.26,0,0,1-10.34-1.89l1.68-.43a271,271,0,0,1-26.3,27.07,161.93,161.93,0,0,1-31,21.7,141.54,141.54,0,0,1-35.49,13.09,178.07,178.07,0,0,1-37.59,4.06l1.4-1a50.36,50.36,0,0,0-3.27,16.18,29.26,29.26,0,0,0,.68,8.07,26.78,26.78,0,0,0,3.09,7.46l.14.24-.77,1.86a.08.08,0,0,1,0,.05.86.86,0,0,1-.52.42,1.76,1.76,0,0,1-.66.13l-1.57,0-.3-.42,0,0a25,25,0,0,1-4-8.31,27.05,27.05,0,0,1-.88-4.53,32,32,0,0,1-.14-4.57,58,58,0,0,1,.91-8.91,54,54,0,0,1,2.37-8.69l1.4,2h-2.09l.64-2,.59-1.8.34-1h1.12l-1.4.95a84.58,84.58,0,0,1,7.09-13.82,103.93,103.93,0,0,1,9.32-12.34,133.41,133.41,0,0,1,23-20.56,100.83,100.83,0,0,1,13.21-8c4.53-2.36,9.15-4.56,13.78-6.69,9.28-4.27,18.7-8.19,28.12-12s18.89-7.59,28.18-11.62a209.67,209.67,0,0,0,26.91-13.87A187.35,187.35,0,0,0,278.86,88c7.64-6.67,15.15-13.54,22.76-20.3l1.06-.95,1,1,1.6,1.6,1.13,1.13-1.2,1.06C299.72,76.42,294.28,81.3,289,86.3s-10.5,10.13-15.49,15.44-9.82,10.79-14.48,16.4q-3.49,4.22-6.9,8.51l-6.94,8.58-.14-2.09a23.79,23.79,0,0,1,5.57,8.11l-1.42-.89c7.55-.3,14.78-3.43,21.42-7.36a189.65,189.65,0,0,0,19.13-13.52c12.36-9.71,24.57-19.76,37.39-29q9.57-7,19.56-13.41c6.67-4.26,13.43-8.38,20.36-12.2a378.89,378.89,0,0,1,42.83-20.39L411,44l.66,1.1,1.2,2,.91,1.51-1.64.66c-7.29,3-14.56,6-21.65,9.35-3.58,1.62-7.06,3.43-10.59,5.17l-5.21,2.74-2.61,1.38-2.57,1.44c-6.89,3.78-13.61,7.86-20.22,12.12s-13.08,8.72-19.42,13.38-12.57,9.47-18.74,14.37-12.27,9.9-18.5,14.79c-3.13,2.43-6.26,4.86-9.5,7.17-1.6,1.18-3.27,2.27-4.91,3.4s-3.34,2.2-5.1,3.17A63.49,63.49,0,0,1,262.26,143a42.67,42.67,0,0,1-12,2.58l1.33-2a48.83,48.83,0,0,1,2.71,12.18,46.2,46.2,0,0,1-.65,12.44c-.68,4.05-1.64,8-2.36,11.91a59.37,59.37,0,0,0-1.2,11.71,8.34,8.34,0,0,0,.37,2.5,1.44,1.44,0,0,0,.35.58c.11.06.1.1.49.09a32.79,32.79,0,0,0,5.69-.78,102.84,102.84,0,0,0,11.42-3.41c3.78-1.33,7.51-2.8,11.2-4.37,1.84-.79,3.68-1.6,5.49-2.44.91-.42,1.81-.85,2.71-1.29Z"
          fill="#515151"/>
    <path d="M236.31,140.34a98.25,98.25,0,0,1-6.66,7.84c-2.16,2.17-4.29,4.37-6.47,6.53s-4.43,4.24-6.69,6.31-4.57,4.1-6.93,6.07A194.47,194.47,0,0,1,179.4,188.2a152.08,152.08,0,0,1-34,14.13,141.42,141.42,0,0,1-36.54,5l-2.24,0,.84-2.07a84.44,84.44,0,0,1,13-21.36,125.92,125.92,0,0,1,17.81-17.43,124.52,124.52,0,0,1,20.8-13.69c7.33-3.83,14.8-7.34,22.34-10.65,15.06-6.67,30.43-12.58,45.44-19.13s29.59-14.12,42.27-24.33l1-.83.94.93.4.4,1,1-1,1c-5.06,5.08-9.94,10.41-14.72,15.79-2.37,2.7-4.76,5.43-7,8.19s-4.54,5.67-7,8.38l-.69.74-.94-.38a15.83,15.83,0,0,0-1.6-.6,3.49,3.49,0,0,0-.6-.09c-.23,0-.52,0-.76,0a3.33,3.33,0,0,0-2.33,1.1,4.79,4.79,0,0,0-.86,2.7,2.5,2.5,0,0,0,.14,1.22,1.68,1.68,0,0,0,.27.46c.06.07.12.15.19.22l.11.1A2.16,2.16,0,0,1,236.31,140.34Zm-3,.23a1,1,0,0,0,.32.85l-.24-.22a5.15,5.15,0,0,1-.43-.5,4.87,4.87,0,0,1-.69-1.17,5.18,5.18,0,0,1-.33-1.33,9.59,9.59,0,0,1,0-1.19,7.6,7.6,0,0,1,1.53-4.4,6.32,6.32,0,0,1,4.32-2.18c.39,0,.73,0,1.14-.05a5.9,5.9,0,0,1,1.28.18,17.08,17.08,0,0,1,1.95.73l-1.62.36c2.42-2.59,4.67-5.38,6.93-8.19s4.69-5.57,7.09-8.3c4.81-5.43,9.69-10.78,14.82-16v2.09l-.4-.4,2,.1a149.17,149.17,0,0,1-20.67,13.82c-7.24,4.05-14.68,7.63-22.23,11-15.12,6.59-30.45,12.48-45.44,19.12-7.5,3.3-14.92,6.79-22.16,10.56a126.93,126.93,0,0,0-37.68,30.37,81.42,81.42,0,0,0-12.55,20.57l-1.4-2a138.37,138.37,0,0,0,35.75-4.93,148.21,148.21,0,0,0,33.37-13.85,191.22,191.22,0,0,0,29.7-20.79c2.32-1.94,4.55-4,6.84-6s4.4-4.16,6.61-6.24,4.27-4.31,6.41-6.46c1-1,1.83-1.92,2.8-2.83S232.27,141.5,233.32,140.57Z"
          fill="#515151"/>
    <path d="M236,140.34a1.65,1.65,0,0,1-1-.61c-.3-.45-.17-.3-.22-.37l-.07-.16-.11-.32a5.53,5.53,0,0,1-.19-.68c0-.13-.05-.25-.07-.4a3.62,3.62,0,0,1,0-.45c0-.2,0-.41,0-.63a5.49,5.49,0,0,1,.92-2.65,4,4,0,0,1,2.69-1.6,5.72,5.72,0,0,1,.7-.07,3.94,3.94,0,0,1,.46,0c.15,0,.27,0,.4.06a6.07,6.07,0,0,1,1.32.46l1.72.82-1.27,1.46a26.46,26.46,0,0,1-2.59,2.71C237.81,138.76,236.91,139.54,236,140.34Zm.38-3c.45-.73.88-1.49,1.28-2.19a10.05,10.05,0,0,1,1.42-1.89l.45,2.28a3,3,0,0,0-.63-.23l-.1,0h-.07l-.32,0a1.05,1.05,0,0,0-.78.44,2.42,2.42,0,0,0-.36,1.22c0,.13,0,.26,0,.4v.07l0,.11a3,3,0,0,0,.11.31l.07.16,0,.08s.12.16-.16-.26A1.35,1.35,0,0,0,236.41,137.37Z"
          fill="#515151"/>
    <path d="M237.56,140.8a48.16,48.16,0,0,1,4.14-5.87l1-1.22,1.11,1.12a16.81,16.81,0,0,1,2.36,3.08,18.36,18.36,0,0,1,1.62,3.48l.67,1.93-2.07,0a18.74,18.74,0,0,1-4-.39c-.66-.14-1.32-.28-2-.47l-1-.3-.5-.17-.06,0-.13-.05a2.45,2.45,0,0,1-.48-.29A2.3,2.3,0,0,1,237.56,140.8Zm2.92-.69a1,1,0,0,0-.25-.67.86.86,0,0,0-.26-.19h0l.05,0,.39.16a7,7,0,0,0,.81.27,12.11,12.11,0,0,0,1.71.38,27.55,27.55,0,0,0,3.51.3L245,142.32a14.25,14.25,0,0,0-3.22-5.44l2.15-.1A23.92,23.92,0,0,1,240.48,140.11Z"
          fill="#515151"/>
    <path d="M341.22,182.65c-10,4.8-30.4,12.8-35.4,12.8-1.6,0-2-.2-2-1,0-3,7-10.8,28.8-27.2l-.8-1c-20.4,7.61-26.8,10.4-40.6,16.4-.8.4-1,.8-1,1.21,0,.59.4.79,1,.79,14-6.2,20.8-9.2,29.6-12.6l.2.4c-13.2,10-19.8,17.41-19.8,22.6,0,1.81,1.6,2.4,3.6,2.4,6.8,0,26.2-8.2,36.4-12.8.8-.4,1-.79,1-1.2C342.22,182.86,341.82,182.65,341.22,182.65Z"
          fill="#515151" stroke="#515151" stroke-miterlimit="10" stroke-width="3"/>
    <path d="M401.42,149.45c47.4-31.2,101.2-72.59,101.2-91.2,0-2.8-1-4.6-3.8-4.6-8.4,0-29.6,19.6-54.4,44.21-20,19.79-34.2,36.79-47.6,52.19-22.8,14.81-43.6,27-55.6,32.6-.8.4-1,.8-1,1.21,0,.59.4.79,1,.79,11.4-5.2,30.2-16,51-29.4-13.2,15-26.2,28.61-44.4,41.8l1.2,2.4c15.8-8.8,29.6-16.59,41.6-23a8.53,8.53,0,0,1,3.4,7c0,4.6-3.8,10.8-3.8,13.6,0,1.81,1.6,2.4,3.6,2.4,6.8,0,32.6-10.2,42.4-14.8.8-.4,1-.79,1-1.2,0-.59-.4-.8-1-.8-9.6,4.8-36.4,14.8-41.4,14.8-1.6,0-2-.2-2-1,0-1.4,4.2-8.2,4.2-12.4s-2-6.6-4.6-8.6c19.2-10,34-16.4,45.8-18.59l-.2-1.61c-17.8,2.61-47.4,18.8-72.8,33l-.2-.39C376.82,178.25,387.62,165.65,401.42,149.45Zm45.2-50c24.2-24.2,44-43.8,51.8-43.8,1,0,2,1,2,2.8,0,17.2-49.4,55.6-94.8,85.8C416.62,131.45,429.62,116.45,446.62,99.45Z"
          fill="#515151" stroke="#515151" stroke-miterlimit="10" stroke-width="3"/>
    <path d="M486.22,182.65c-10,4.8-30.4,12.8-35.4,12.8-1.6,0-2-.2-2-1,0-3,7-10.8,28.8-27.2l-.8-1c-20.4,7.61-26.8,10.4-40.6,16.4-.8.4-1,.8-1,1.21,0,.59.4.79,1,.79,14-6.2,20.8-9.2,29.6-12.6l.2.4c-13.2,10-19.8,17.41-19.8,22.6,0,1.81,1.6,2.4,3.6,2.4,6.8,0,26.2-8.2,36.4-12.8.8-.4,1-.79,1-1.2C487.22,182.86,486.82,182.65,486.22,182.65Z"
          fill="#515151" stroke="#515151" stroke-miterlimit="10" stroke-width="3"/>
    <path d="M513,150.9a3.87,3.87,0,0,0-3.57,4.15,2.25,2.25,0,0,0,2.28,2.27,2.71,2.71,0,0,0,1.43-.27c-2.57,4.69-10.84,8.56-17,10.69l.28,1.14c7-2.7,18.27-7.27,18.84-14.83v-.57A2.43,2.43,0,0,0,513,150.9Z"
          fill="#515151" stroke="#515151" stroke-miterlimit="10" stroke-width="2.14"/>
    <path d="M552,182.65c-13.2,6-22.4,9.6-31.6,11.4l-.2-.4c10.2-6.2,11.8-17.6,18.4-27.4,8.2-3.8,10.4-5.6,10.4-7,0-.6-.2-1-.8-1-2,0-4.6,1.61-9.6,6.4-15.8,6.6-23.4,9.6-41.6,18-.8.4-1,.8-1,1.21,0,.59.4.79,1,.79,18.6-8.79,26.4-12,37.8-16.4-7,15-19.6,28-30.2,28-3.2,0-5.8-1.8-5.8-4.2a2.89,2.89,0,0,1,.4-1.4,9.56,9.56,0,0,0,2.4.4,4,4,0,0,0,4-3.8c0-1.2-.8-2.2-2.8-2.2-3,0-5.6,3.2-5.6,7,0,3.2,3.4,5.81,7.6,5.81,16.6,0,34.2-7.41,47.2-13.21.8-.4,1-.79,1-1.2C553,182.86,552.55,182.65,552,182.65Z"
          fill="#515151" stroke="#515151" stroke-miterlimit="10" stroke-width="3"/>
    <circle cx="343.69" cy="157.7" r="2.71" fill="#515151" stroke="#515151" stroke-miterlimit="10" stroke-width="2.14"/>
    <circle cx="485.48" cy="157.7" r="2.71" fill="#515151" stroke="#515151" stroke-miterlimit="10" stroke-width="2.14"/>
</svg>