<svg xmlns="http://www.w3.org/2000/svg" viewBox="0 0 509.09 227.07"><path d="M399.67,218.91a5.83,5.83,0,0,1-4.54-2l.68-.62a5,5,0,0,0,4,1.81c2,0,4.46-1.16,4.46-4.07,0-2.41-1.32-3.37-3.29-4.25L399,208.9c-2-.88-3.47-2.1-3.47-4.51a4.81,4.81,0,0,1,5.1-4.72,5.09,5.09,0,0,1,4.18,2l-.65.63a4.29,4.29,0,0,0-3.55-1.79c-2.67,0-4.18,1.73-4.18,3.86s1.25,3,2.91,3.76l1.92.83c2.28,1,3.86,2.2,3.86,5C405.14,217.12,402.37,218.91,399.67,218.91Z" fill="#fcfae8" stroke="#fffefa" stroke-miterlimit="10"/><path d="M420.9,218.47v-9.31H410v9.31h-.91v-18.3H410v8.14H420.9v-8.14h.91v18.3Z" fill="#fcfae8" stroke="#fffefa" stroke-miterlimit="10"/><path d="M427.09,218.47V200.12H437.8v.52H427.66v8.06h9.54v.52h-9.54V218h10.55v.52Z" fill="#fcfae8" stroke="#fffefa" stroke-miterlimit="10"/><path d="M451.82,218.91a5.8,5.8,0,0,1-4.53-2l.67-.62a5.06,5.06,0,0,0,4,1.81c2,0,4.46-1.16,4.46-4.07,0-2.41-1.33-3.37-3.3-4.25l-1.91-.86c-2-.88-3.48-2.1-3.48-4.51a4.82,4.82,0,0,1,5.11-4.72,5.07,5.07,0,0,1,4.17,2l-.65.63a4.27,4.27,0,0,0-3.55-1.79,3.81,3.81,0,0,0-4.17,3.86c0,2,1.24,3,2.9,3.76l1.92.83c2.28,1,3.86,2.2,3.86,5C457.29,217.12,454.52,218.91,451.82,218.91Z" fill="#fcfae8" stroke="#fffefa" stroke-miterlimit="10"/><path d="M473.06,218.47v-9.31H462.17v9.31h-.91v-18.3h.91v8.14h10.89v-8.14h.9v18.3Z" fill="#fcfae8" stroke="#fffefa" stroke-miterlimit="10"/><path d="M479.25,218.47V200.12H490v.52H479.82v8.06h9.54v.52h-9.54V218h10.55v.52Z" fill="#fcfae8" stroke="#fffefa" stroke-miterlimit="10"/><path d="M498.15,218.47h-3.82v-18.3h3.87c5.68,0,10.39,1.92,10.39,8.76C508.59,216,504.06,218.47,498.15,218.47Zm.07-17.42h-3v16.54h2.93c4.72,0,9.54-1.71,9.54-8.66S502.22,201.05,498.22,201.05Z" fill="#fcfae8" stroke="#fffefa" stroke-miterlimit="10"/><path d="M103.83,194.4c-2.12.2-4.23.08-6.35.07s-4.23-.14-6.34-.29a124,124,0,0,1-12.61-1.52,105.18,105.18,0,0,1-24.3-7.22,88.94,88.94,0,0,1-21.55-13.31,85.25,85.25,0,0,1-16.78-19A94.08,94.08,0,0,1,5.12,130.25,112.13,112.13,0,0,1,.34,105.37,97.2,97.2,0,0,1,176.47,40.94,97,97,0,0,0,9.55,56.14,96.59,96.59,0,0,0,.84,105.33c1.34,16.77,6.31,33.4,15.56,47.51a85.14,85.14,0,0,0,16.69,18.79A88.54,88.54,0,0,0,54.51,184.8a103.19,103.19,0,0,0,24.15,7.08,122.94,122.94,0,0,0,12.53,1.46c2.1.14,4.2.22,6.31.26,1,0,2.1,0,3.15,0l1.58,0H103c.26,0,.52-.07.79.08Z" fill="#fffefa"/><path d="M273,171.47c-9.41,4.89-29.17,13-37.64,13-1.31,0-2.44-.94-2.44-4.89,0-10.54,4.14-20.33,4.14-29.73a43.33,43.33,0,0,0-2.64-14.68c33.88-1.88,62.29-55.33,151.86-90.51l-1.13-1.89c-89.76,36-119.3,89.2-151.67,90.33a20.71,20.71,0,0,0-4.89-7.15c2.26-2.64,4.14-5.08,6.4-7.91C252.65,95.63,266.2,82.65,285.2,65.9l-1.5-1.51c-29.36,26.16-37.83,35.57-69.44,49.49-19.38,8.47-45.35,17.69-67.93,29.55-12.23,6.4-37.45,25-47.05,49.86h0L98.7,195h0c-.08.2-.14.39-.21.59l-.64,1.95a51.39,51.39,0,0,0-2.16,15.15,23.58,23.58,0,0,0,4.52,13.92l1.12-.56a25.7,25.7,0,0,1-3.76-13.74,48.69,48.69,0,0,1,3.2-17.31c56.45-.19,90-24.65,121.56-61.54a25.83,25.83,0,0,0,9.22,1.7,20.29,20.29,0,0,1,.57,4.89c0,10.73-4.14,21.26-4.14,33.31,0,10,.75,14.49,4.51,14.49,10.16,0,30.86-9.79,40.46-14.49.75-.38.94-.76.94-1.13C273.91,171.65,273.53,171.47,273,171.47ZM219.9,131.76c-29.54,32.56-67.93,61.35-118.55,61.53,9.41-23.52,33.69-41,45.92-47.6,22.58-12.05,48.36-21.27,67.74-29.92,14.11-6.4,26.53-13,38-22.21l.38.38c-6.59,6.58-15.81,16.93-20.14,22.2-2.25,2.83-4.51,5.65-7,8.28a7.07,7.07,0,0,0-2.63-.75c-3.77,0-5.08,2.45-5.08,5.46A3.27,3.27,0,0,0,219.9,131.76Zm1.32-1.5a3.51,3.51,0,0,1-.37-1.32c0-1.88.75-3.39,2.82-3.39a3.53,3.53,0,0,1,1.32.38Zm2.64,1.5,3.57-4.33a15,15,0,0,1,3.39,5.65A18.35,18.35,0,0,1,223.86,131.76Z" fill="#fffefa"/><path d="M273.06,171.85c-1.58.83-3.32,1.68-5.05,2.47s-3.47,1.57-5.22,2.32c-3.5,1.49-7,2.89-10.64,4.16a98.58,98.58,0,0,1-11,3.26,31.25,31.25,0,0,1-5.72.78,2.38,2.38,0,0,1-1.59-.47A3,3,0,0,1,233,183a9.39,9.39,0,0,1-.47-2.93c-.11-7.74,2.1-15.15,3.38-22.58a41.68,41.68,0,0,0,.59-11.25,43.69,43.69,0,0,0-2.45-11l-.18-.49.53,0a38.34,38.34,0,0,0,10.73-2.32,57.74,57.74,0,0,0,10-4.79c3.2-1.86,6.27-3.93,9.27-6.1s5.95-4.42,8.88-6.69c11.64-9.2,23.07-18.72,35.09-27.48q9-6.6,18.36-12.64c6.25-4,12.61-7.89,19.12-11.47q2.43-1.38,4.9-2.66l4.94-2.6c3.33-1.64,6.63-3.35,10-4.89,6.7-3.21,13.57-6.06,20.47-8.84l-.2.57L384.78,43l.49.16A354.38,354.38,0,0,0,345.18,62.2c-6.49,3.58-12.82,7.43-19.06,11.42s-12.34,8.2-18.32,12.56c-12,8.69-23.46,18.1-35.12,27.27a180.81,180.81,0,0,1-18.2,12.85,59.39,59.39,0,0,1-10,4.88,35.73,35.73,0,0,1-11,2.29h-.27l-.11-.24a20.54,20.54,0,0,0-4.79-7L228,126l.24-.3,6.49-8c2.15-2.7,4.31-5.38,6.51-8,4.41-5.3,9-10.49,13.7-15.51,9.44-10.07,19.64-19.38,30-28.5l0,.58-1.5-1.51.54,0c-7.15,6.36-14.21,12.82-21.43,19.12a178.2,178.2,0,0,1-22.88,17.4,199.74,199.74,0,0,1-25.56,13.18c-8.79,3.81-17.69,7.33-26.55,11s-17.7,7.28-26.39,11.28c-4.34,2-8.65,4.06-12.9,6.26A95.07,95.07,0,0,0,136,150.3a123.86,123.86,0,0,0-21.27,19,96.22,96.22,0,0,0-8.61,11.4,78.31,78.31,0,0,0-6.51,12.69l-.1.25h-.29l.37-.27-.55,1.69-.38-.52h.58l-.19.54A50.61,50.61,0,0,0,97,203a52.58,52.58,0,0,0-.82,8.11,24.85,24.85,0,0,0,.88,8,21.92,21.92,0,0,0,3.51,7.22l0,0-.49-.11a4,4,0,0,1,1.09-.56h0l-.17.56a28.22,28.22,0,0,1-3.1-7.51,29.33,29.33,0,0,1-.68-8.08,49.07,49.07,0,0,1,3.19-15.8l.1-.26h.27a165.64,165.64,0,0,0,35-3.78,130.71,130.71,0,0,0,32.94-12.15,150.56,150.56,0,0,0,28.79-20.18,251.66,251.66,0,0,0,24.56-25.28l.18-.21.26.1a25.61,25.61,0,0,0,9.08,1.66h.31l.07.3a22.32,22.32,0,0,1,.55,6.4,61.18,61.18,0,0,1-.57,6.34c-.6,4.2-1.48,8.33-2.21,12.48a77.53,77.53,0,0,0-1.32,12.51c0,2.1,0,4.21.13,6.3a20.84,20.84,0,0,0,1,6.09,3.51,3.51,0,0,0,1.81,2.08,8.06,8.06,0,0,0,3,.09,42.18,42.18,0,0,0,6.15-1.17,108.81,108.81,0,0,0,11.94-4c3.92-1.54,7.78-3.22,11.61-5,1.92-.88,3.83-1.77,5.73-2.69l2.84-1.38c.47-.21.87-.48.91-.75s0-.35-.06-.37a.33.33,0,0,0-.17-.08l-.14,0h-.07Zm-.18-.77h.32l.25,0a1.17,1.17,0,0,1,.53.27,1,1,0,0,1,.3.56,1.69,1.69,0,0,1,0,.55,2.13,2.13,0,0,1-1.34,1.3l-2.85,1.38c-1.9.92-3.82,1.82-5.74,2.7-3.84,1.76-7.72,3.45-11.65,5a109.82,109.82,0,0,1-12,4.05,42.33,42.33,0,0,1-6.27,1.2l-1.61.09a4.61,4.61,0,0,1-1.7-.24,4.26,4.26,0,0,1-2.27-2.52,21.67,21.67,0,0,1-1.07-6.34c-.12-2.12-.15-4.23-.13-6.35a78.66,78.66,0,0,1,1.33-12.64c.73-4.16,1.61-8.29,2.2-12.45a59.91,59.91,0,0,0,.57-6.26,21.67,21.67,0,0,0-.52-6.18l.38.3a26.26,26.26,0,0,1-9.36-1.72l.44-.11A252.15,252.15,0,0,1,198,159.07a151.21,151.21,0,0,1-28.94,20.29,131.51,131.51,0,0,1-33.14,12.22,166.66,166.66,0,0,1-35.14,3.8l.37-.25A48.44,48.44,0,0,0,98,210.68a28.85,28.85,0,0,0,.66,7.87,27.15,27.15,0,0,0,3,7.29l.17.29-.34.26,0,0a4,4,0,0,1-1.1.54l-.32.12-.17-.23,0,0a22.71,22.71,0,0,1-3.64-7.48,25.93,25.93,0,0,1-.91-8.26,53,53,0,0,1,.83-8.23,51.6,51.6,0,0,1,2.18-8l.37.53h-.56l.17-.52.55-1.69.09-.27h.31l-.36.25a80,80,0,0,1,6.57-12.83,99,99,0,0,1,8.69-11.49,124.3,124.3,0,0,1,21.41-19.18,95.07,95.07,0,0,1,12.3-7.47c4.26-2.21,8.58-4.27,12.93-6.28,8.71-4,17.56-7.68,26.42-11.29s17.77-7.14,26.54-11a198.63,198.63,0,0,0,25.45-13.12A177,177,0,0,0,262,83.21c7.2-6.28,14.27-12.75,21.42-19.11l.28-.25.26.27,1.51,1.5.3.3-.32.28C275.13,75.3,265,84.59,255.54,94.64q-7.08,7.52-13.67,15.47-3.28,4-6.5,8l-6.51,8,0-.55a21.27,21.27,0,0,1,5,7.29l-.37-.24a35,35,0,0,0,10.72-2.24,59,59,0,0,0,9.92-4.82,181.53,181.53,0,0,0,18.11-12.79c11.65-9.16,23.12-18.59,35.14-27.29Q316.33,79,325.7,73c6.25-4,12.59-7.87,19.09-11.45A355.87,355.87,0,0,1,385,42.39l.32-.13.17.29,1.13,1.88.24.4-.44.17c-6.87,2.78-13.73,5.62-20.42,8.82-3.38,1.54-6.67,3.25-10,4.89l-4.93,2.58q-2.46,1.29-4.88,2.66c-6.5,3.57-12.85,7.42-19.08,11.44S314.74,83.62,308.76,88c-12,8.75-23.4,18.25-35.06,27.46-2.94,2.28-5.87,4.56-8.91,6.72s-6.11,4.25-9.33,6.13a58.18,58.18,0,0,1-10.09,4.85,39.05,39.05,0,0,1-11,2.37l.35-.53a44.84,44.84,0,0,1,2.49,11.2,42.65,42.65,0,0,1-.6,11.45c-1.3,7.5-3.48,14.87-3.37,22.42a8.69,8.69,0,0,0,.42,2.68,1.66,1.66,0,0,0,1.75,1.29,31.1,31.1,0,0,0,5.56-.76,96.78,96.78,0,0,0,10.87-3.24c3.57-1.26,7.1-2.65,10.59-4.14,1.75-.74,3.48-1.5,5.2-2.31S271.08,172,272.88,171.08Z" fill="#fffefa"/><path d="M220.3,131.73c-1.94,2.19-4,4.46-6,6.59s-4,4.11-6.07,6.12-4.14,4-6.27,5.92-4.28,3.84-6.48,5.68a182.77,182.77,0,0,1-28.22,19.76A141.51,141.51,0,0,1,135.47,189a131.94,131.94,0,0,1-34.11,4.7h-.6l.23-.54a78,78,0,0,1,12.09-19.83,121.24,121.24,0,0,1,36-29c6.86-3.58,13.87-6.87,20.95-10,14.15-6.27,28.6-11.81,42.76-18s27.95-13.36,40-23.06l.27-.22.25.25.38.38.28.28-.28.28c-4.78,4.81-9.37,9.83-13.88,14.91-2.24,2.55-4.48,5.12-6.61,7.74s-4.27,5.31-6.6,7.82l-.18.2-.25-.1a14.37,14.37,0,0,0-1.63-.61,4.47,4.47,0,0,0-1.64-.07,4.12,4.12,0,0,0-2.86,1.4,5.39,5.39,0,0,0-1,3.11,3.33,3.33,0,0,0,.19,1.59,3.35,3.35,0,0,0,.66,1l.15.14A1.21,1.21,0,0,1,220.3,131.73Zm-.79.06a.12.12,0,0,0,0,.12l-.18-.17c-.11-.11-.22-.24-.33-.37a3.87,3.87,0,0,1-.5-.86,4.21,4.21,0,0,1-.25-1.93,6.12,6.12,0,0,1,1.21-3.57,4.94,4.94,0,0,1,3.39-1.69c.31,0,.62,0,.94,0a3.63,3.63,0,0,1,1,.14,13.35,13.35,0,0,1,1.72.64l-.44.09c2.3-2.48,4.44-5.12,6.56-7.77s4.39-5.21,6.64-7.77c4.52-5.09,9.11-10.12,13.91-15v.56l-.38-.38.53,0c-12.11,9.76-26,16.9-40.15,23.16s-28.63,11.74-42.76,18c-7.07,3.11-14.06,6.4-20.91,10a115.57,115.57,0,0,0-19.27,12.69,117,117,0,0,0-16.49,16.14,77.57,77.57,0,0,0-12,19.62l-.37-.54a131.2,131.2,0,0,0,33.91-4.67,141,141,0,0,0,31.62-13.12A181.67,181.67,0,0,0,195,155.44c2.2-1.84,4.3-3.78,6.46-5.67s4.16-3.93,6.25-5.89,4-4.07,6.05-6.1S217.53,133.79,219.51,131.79Z" fill="#fffefa"/><path d="M221.17,130.65a.59.59,0,0,1-.28-.2.89.89,0,0,1-.08-.14l-.05-.12-.1-.25a3.23,3.23,0,0,1-.14-.51,2.21,2.21,0,0,1-.06-.57,4.41,4.41,0,0,1,0-.52,4.15,4.15,0,0,1,.67-2,2.82,2.82,0,0,1,1.89-1.11,3.15,3.15,0,0,1,.53,0,1.78,1.78,0,0,1,.57,0,4.5,4.5,0,0,1,1,.36l.46.22-.34.38c-.66.77-1.34,1.54-2,2.28Zm.1-.79,1.69-2.13c.56-.71,1.14-1.38,1.73-2.06l.12.61a4.26,4.26,0,0,0-.82-.3,1.33,1.33,0,0,0-.39,0,2.86,2.86,0,0,0-.43,0,2,2,0,0,0-1.38.8,3.16,3.16,0,0,0-.53,1.63,3.39,3.39,0,0,0,0,.45,1.36,1.36,0,0,0,0,.4,3.31,3.31,0,0,0,.12.42l.08.2.05.1s0,.07,0,0A.27.27,0,0,0,221.27,129.86Z" fill="#fffefa"/><path d="M223.47,131.85c1.16-1.54,2.39-3.15,3.66-4.67l.28-.34.3.31a15.47,15.47,0,0,1,3.48,5.8l.18.52h-.55a19.9,19.9,0,0,1-3.62-.33q-.88-.16-1.77-.42-.44-.12-.87-.27l-.44-.15a2.24,2.24,0,0,1-.32-.16A1.35,1.35,0,0,1,223.47,131.85Zm.77-.18a.21.21,0,0,0,.08-.11s0,0,.09,0l.4.15c.27.1.55.19.83.27.56.15,1.13.28,1.7.38a20.37,20.37,0,0,0,3.48.31l-.38.52a14.65,14.65,0,0,0-3.29-5.49l.59,0C226.62,129.05,225.46,130.33,224.24,131.67Z" fill="#fffefa"/><path d="M320,171.47c-9.41,4.51-28.6,12-33.3,12-1.51,0-1.89-.19-1.89-.94,0-2.82,6.59-10.16,27.1-25.59l-.75-.94C292,163.19,286,165.82,273,171.47c-.75.37-.94.75-.94,1.12,0,.57.38.76.94.76,13.17-5.84,19.57-8.66,27.85-11.86l.19.38c-12.42,9.41-18.63,16.37-18.63,21.26,0,1.7,1.5,2.26,3.39,2.26,6.39,0,24.65-7.71,34.24-12,.76-.38.94-.76.94-1.13C321,171.65,320.58,171.47,320,171.47Z" fill="#fffefa" stroke="#fffefa" stroke-miterlimit="10" stroke-width="0.89"/><path d="M376.65,140.23c44.6-29.36,95.22-68.31,95.22-85.81,0-2.63-.94-4.33-3.58-4.33-7.9,0-27.85,18.44-51.18,41.59-18.82,18.63-32.18,34.62-44.78,49.11-21.46,13.93-41,25.41-52.32,30.68-.75.37-.94.75-.94,1.12,0,.57.38.76.94.76,10.73-4.9,28.42-15.06,48-27.66-12.42,14.11-24.65,26.9-41.78,39.32l1.13,2.26c14.87-8.28,27.85-15.62,39.14-21.64a8,8,0,0,1,3.2,6.59c0,4.33-3.57,10.16-3.57,12.79,0,1.7,1.5,2.26,3.38,2.26,6.4,0,30.68-9.59,39.9-13.92.75-.38.94-.76.94-1.13,0-.57-.38-.75-.94-.75-9,4.51-34.25,13.92-39,13.92-1.5,0-1.88-.19-1.88-.94,0-1.32,3.95-7.72,3.95-11.67s-1.88-6.21-4.32-8.09c18.06-9.41,32-15.43,43.09-17.5l-.19-1.5c-16.75,2.44-44.6,17.68-68.5,31l-.18-.37C353.51,167.33,363.67,155.47,376.65,140.23Zm42.53-47C442,70.42,460.58,52,467.92,52c.94,0,1.88,1,1.88,2.64,0,16.18-46.48,52.31-89.19,80.73C391,123.29,403.19,109.18,419.18,93.19Z" fill="#fffefa" stroke="#fffefa" stroke-miterlimit="10" stroke-width="0.89"/><path d="M456.44,171.47c-9.41,4.51-28.6,12-33.31,12-1.5,0-1.88-.19-1.88-.94,0-2.82,6.59-10.16,27.1-25.59l-.75-.94c-19.2,7.15-25.22,9.78-38.2,15.43-.76.37-.94.75-.94,1.12,0,.57.37.76.94.76,13.17-5.84,19.57-8.66,27.85-11.86l.18.38c-12.42,9.41-18.63,16.37-18.63,21.26,0,1.7,1.51,2.26,3.39,2.26,6.4,0,24.65-7.71,34.25-12,.75-.38.94-.76.94-1.13C457.38,171.65,457,171.47,456.44,171.47Z" fill="#fffefa" stroke="#fffefa" stroke-miterlimit="10" stroke-width="0.89"/><path d="M469.81,144.55a1.53,1.53,0,0,0-1,1.91.88.88,0,0,0,1.08.67,1,1,0,0,0,.52-.23c-.56,2-3.4,4.26-5.57,5.64l.21.41c2.45-1.67,6.38-4.44,5.92-7.4l-.05-.22A1,1,0,0,0,469.81,144.55Z" fill="#fffefa" stroke="#fffefa" stroke-miterlimit="10" stroke-width="0.89"/><path d="M507.65,171.7c-12.42,5.64-21.07,9-29.73,10.72l-.19-.38c9.6-5.83,11.11-16.55,17.32-25.78,7.71-3.57,9.78-5.26,9.78-6.58,0-.57-.19-.94-.75-.94-1.88,0-4.33,1.5-9,6-14.87,6.21-22,9-39.14,16.94-.76.37-1,.75-1,1.12,0,.57.38.76,1,.76,17.5-8.28,24.83-11.29,35.56-15.43-6.59,14.11-18.44,26.34-28.41,26.34-3,0-5.46-1.69-5.46-4a2.71,2.71,0,0,1,.38-1.32,9.3,9.3,0,0,0,2.25.38A3.74,3.74,0,0,0,464,176c0-1.13-.76-2.07-2.64-2.07-2.82,0-5.27,3-5.27,6.59,0,3,3.2,5.46,7.15,5.46,15.62,0,32.18-7,44.41-12.42.76-.38.94-.76.94-1.13C508.59,171.88,508.22,171.7,507.65,171.7Z" fill="#fffefa" stroke="#fffefa" stroke-miterlimit="10" stroke-width="0.89"/><path d="M317.56,154.12l-3.73-4.55a3,3,0,1,1,4.56-3.74c3.5-2.87,7.24,1.68,3.73,4.56Z" fill="#fffefa" stroke="#fffefa" stroke-miterlimit="10" stroke-width="0.89"/><path d="M454.34,154.12l-3.73-4.55a3,3,0,1,1,4.55-3.74c3.51-2.87,7.24,1.68,3.73,4.56Z" fill="#fffefa" stroke="#fffefa" stroke-miterlimit="10" stroke-width="0.89"/></svg>