<svg xmlns="http://www.w3.org/2000/svg" viewBox="0 0 741.28 324.33"><path d="M149.05,278.94c-.18.59-.37.66-.56.64h-4c-1.52,0-3,0-4.57-.07-3-.09-6.09-.2-9.13-.47a173.16,173.16,0,0,1-18.14-2.4,174.61,174.61,0,0,1-17.79-4.32A150,150,0,0,1,77.68,266a128.38,128.38,0,0,1-31-19.34,122.83,122.83,0,0,1-24.1-27.47,135.64,135.64,0,0,1-15.38-33A160.07,160.07,0,0,1,.44,150.4,139.13,139.13,0,0,1,163.28,2.11,137.18,137.18,0,0,1,197.6,13a139,139,0,0,1,54.63,45.75,138.8,138.8,0,0,0-54.94-45.08,136.77,136.77,0,0,0-34.2-10.43A138.62,138.62,0,0,0,127.39,2,136.53,136.53,0,0,0,4.16,150.1a156.28,156.28,0,0,0,6.91,34.78,131.2,131.2,0,0,0,15.21,31.85,118.54,118.54,0,0,0,23.47,26.19,122.94,122.94,0,0,0,30,18.28,137.81,137.81,0,0,0,33.87,9.65,176,176,0,0,0,17.58,1.82c2.95.16,5.89.28,8.84.33,1.48,0,2.95,0,4.43,0l2.21,0,1.11,0h.55c.18,0,.37,0,.57.63Z" fill="#efefef"/><path d="M389.35,244.19c-13.37,6.95-41.45,18.45-53.48,18.45-1.87,0-3.48-1.34-3.48-6.95,0-15,5.89-28.88,5.89-42.25a61.78,61.78,0,0,0-3.75-20.86C382.66,189.91,423,114,550.32,64l-1.61-2.68C421.17,112.37,379.19,188,333.2,189.64a29.64,29.64,0,0,0-7-10.16c3.21-3.74,5.89-7.22,9.09-11.23,25.14-31.82,44.39-50.27,71.4-74.07L404.59,92c-41.71,37.17-53.75,50.54-98.67,70.33-27.54,12-64.44,25.13-96.53,42-17.38,9.09-53.21,35.56-66.85,70.86h0l-.78,2.41h0c-.11.28-.2.56-.29.84l-.91,2.77a72.78,72.78,0,0,0-3.08,21.52,33.6,33.6,0,0,0,6.42,19.79l1.61-.8a36.39,36.39,0,0,1-5.35-19.52,69.22,69.22,0,0,1,4.54-24.6c80.22-.27,127.82-35,172.74-87.44a37.13,37.13,0,0,0,13.1,2.4,28.93,28.93,0,0,1,.8,7c0,15.24-5.88,30.21-5.88,47.33,0,14.17,1.07,20.58,6.42,20.58,14.44,0,43.85-13.9,57.49-20.58,1.07-.54,1.33-1.07,1.33-1.61C390.68,244.46,390.15,244.19,389.35,244.19Zm-75.41-56.42c-42,46.26-96.53,87.17-168.45,87.44,13.37-33.43,47.86-58.29,65.24-67.65C242.82,190.45,279.45,177.34,307,165c20.06-9.09,37.7-18.45,54-31.55l.54.54c-9.36,9.35-22.46,24.06-28.61,31.55-3.21,4-6.42,8-9.9,11.76a9.94,9.94,0,0,0-3.74-1.07c-5.35,0-7.22,3.48-7.22,7.76A4.69,4.69,0,0,0,313.94,187.77Zm1.87-2.14a5,5,0,0,1-.53-1.87c0-2.67,1.07-4.81,4-4.81a4.84,4.84,0,0,1,1.87.53Zm3.75,2.14,5.08-6.15a21.38,21.38,0,0,1,4.81,8A26,26,0,0,1,319.56,187.77Z" fill="#efefef"/><path d="M389.82,246.14l-1.52.82-.77.4-.92.45c-1.23.59-2.46,1.18-3.7,1.75q-3.71,1.73-7.46,3.31c-5,2.13-10.06,4.13-15.2,5.95a143,143,0,0,1-15.75,4.69,46.8,46.8,0,0,1-8.43,1.13,4.8,4.8,0,0,1-3.15-1,5.7,5.7,0,0,1-1.76-2.54,14.49,14.49,0,0,1-.76-4.63c-.16-11.31,3-21.92,4.82-32.37a57.77,57.77,0,0,0,.83-15.61,61,61,0,0,0-3.4-15.26l-.91-2.52,2.68-.17a52.91,52.91,0,0,0,14.84-3.22,81.15,81.15,0,0,0,13.91-6.69l1.69-1,1.65-1,3.29-2.1c2.15-1.48,4.33-2.91,6.44-4.47,4.26-3,8.41-6.26,12.56-9.48,8.28-6.49,16.44-13.18,24.72-19.75s16.64-13.06,25.17-19.32,17.26-12.28,26.17-18,18-11.24,27.25-16.34l3.47-1.94,3.51-1.86,7-3.7c4.75-2.34,9.46-4.78,14.28-7,9.56-4.57,19.35-8.63,29.18-12.6l-1,2.9L547,62.33l2.47.83c-9.7,4-19.38,8.06-28.83,12.63-4.76,2.19-9.42,4.61-14.11,7-2.34,1.19-4.64,2.45-7,3.68l-3.47,1.84-3.44,1.92c-9.19,5.06-18.15,10.53-27,16.18s-17.49,11.62-26,17.8-16.84,12.57-25.1,19.08-16.45,13.13-24.77,19.64c-4.17,3.24-8.37,6.47-12.69,9.55s-8.73,6.07-13.32,8.82a86.66,86.66,0,0,1-14.53,7.05,52.31,52.31,0,0,1-16,3.34l-1.36,0-.55-1.25A28.05,28.05,0,0,0,324.9,181l-1.41-1.28,1.23-1.51,9.19-11.36,4.6-5.75,4.67-5.7q9.42-11.34,19.53-22.1c6.73-7.17,13.72-14.1,20.88-20.82s14.46-13.29,21.81-19.77l-.09,2.92-2.14-2.14,2.75.08c-10.15,9-20.18,18.21-30.47,27.18s-21,17.61-32.68,24.87a285.46,285.46,0,0,1-36.5,18.81c-12.53,5.44-25.19,10.44-37.77,15.58s-25.12,10.34-37.44,16c-6.15,2.83-12.26,5.75-18.27,8.87a133,133,0,0,0-17.18,10.43,174.3,174.3,0,0,0-30,26.85L162.37,246c-1.05,1.31-2.06,2.65-3.09,4-.5.66-1,1.32-1.52,2L156.34,254c-.93,1.39-2,2.73-2.81,4.16a110.39,110.39,0,0,0-9.12,17.77l-.52,1.28H142.5l1.91-1.38-.79,2.41-1.9-2.63h2.86l-1,2.72a68.94,68.94,0,0,0-3,10.91,72.51,72.51,0,0,0-1.15,11.31,39.25,39.25,0,0,0,.16,5.56,32,32,0,0,0,1.05,5.4,29.62,29.62,0,0,0,4.74,9.78l0,0-2.5-.58a2.43,2.43,0,0,1,.68-.61,1.16,1.16,0,0,1,.87-.21h.05l-.84,2.82a41.66,41.66,0,0,1-4.55-11.06,43.43,43.43,0,0,1-1-11.87,71.37,71.37,0,0,1,4.63-22.92l.48-1.28h1.39a234.46,234.46,0,0,0,49.38-5.34,184.42,184.42,0,0,0,46.44-17.13,212.62,212.62,0,0,0,40.64-28.48,358.32,358.32,0,0,0,34.76-35.79l.92-1.07,1.32.51a35.3,35.3,0,0,0,12.38,2.27h1.57l.38,1.52a33,33,0,0,1,.81,9.48,84.65,84.65,0,0,1-.83,9.17c-.85,6-2.11,11.92-3.13,17.78a107.81,107.81,0,0,0-1.86,17.54c0,3,0,5.94.18,8.85a28.84,28.84,0,0,0,1.34,8.2,5.22,5.22,0,0,0,.8,1.41l.22.26.24.18c.13.16.34.17.5.3a4.22,4.22,0,0,0,1.47.16l2.08-.12a55.7,55.7,0,0,0,8.51-1.63A152.15,152.15,0,0,0,359.6,258c5.54-2.18,11-4.56,16.43-7,2.71-1.25,5.42-2.51,8.11-3.81l4-1.95.41-.21a1.21,1.21,0,0,0,.22-.14c.11-.09-.05,0-.11.28a.41.41,0,0,0,0,.22,1.13,1.13,0,0,0,.34.6,1,1,0,0,0,.41.24h0A1.29,1.29,0,0,0,389.82,246.14Zm-.95-3.9a3.12,3.12,0,0,1,.68-.05l.27,0a3,3,0,0,1,.55.09,3.06,3.06,0,0,1,1.4.73,2.9,2.9,0,0,1,.86,1.58,3.55,3.55,0,0,1,0,1.34,3.31,3.31,0,0,1-.58,1.29,3.9,3.9,0,0,1-.78.79,5.35,5.35,0,0,1-.73.48c-.25.14-.42.22-.59.3l-4.06,2c-2.71,1.3-5.44,2.58-8.17,3.84-5.48,2.51-11,4.91-16.64,7.13a152.75,152.75,0,0,1-17.26,5.81,59.43,59.43,0,0,1-9.15,1.75l-2.4.13a7.84,7.84,0,0,1-1.41-.06,8.1,8.1,0,0,1-1.55-.37,6.76,6.76,0,0,1-1.44-.81l-.64-.52-.52-.58a9.27,9.27,0,0,1-1.44-2.47,31.74,31.74,0,0,1-1.63-9.47c-.17-3.08-.21-6.08-.18-9.13a113.2,113.2,0,0,1,1.91-18.19c1.05-6,2.3-11.81,3.12-17.65a78.38,78.38,0,0,0,.79-8.74,37.86,37.86,0,0,0,0-4.27,26.47,26.47,0,0,0-.65-4.11l1.94,1.52a39.15,39.15,0,0,1-13.82-2.54l2.24-.57a360.59,360.59,0,0,1-35.15,36.19,216.91,216.91,0,0,1-41.4,29,188.4,188.4,0,0,1-47.45,17.5,238.08,238.08,0,0,1-50.25,5.44l1.87-1.29A67,67,0,0,0,142.19,300a39.57,39.57,0,0,0,.9,10.8,36.18,36.18,0,0,0,4.14,10l.21.36-1.05,2.46a.08.08,0,0,0,0,0,1.21,1.21,0,0,1-.7.57,2.14,2.14,0,0,1-.89.17l-2.1,0-.39-.55,0,0a33.5,33.5,0,0,1-5.41-11.12,36.67,36.67,0,0,1-1.18-6.06,44.83,44.83,0,0,1-.18-6.1,78.31,78.31,0,0,1,1.21-11.92,73,73,0,0,1,3.17-11.62l1.87,2.72H139l.86-2.63.79-2.41.45-1.38h1.49l-1.87,1.29A114.71,114.71,0,0,1,150.15,256c.89-1.48,1.94-2.86,2.9-4.29l1.47-2.14c.5-.7,1-1.37,1.57-2,1.06-1.36,2.09-2.75,3.17-4.09l3.36-3.93A177.91,177.91,0,0,1,193.29,212,136.92,136.92,0,0,1,211,201.29c6.07-3.15,12.24-6.09,18.44-8.95,12.4-5.7,25-10.94,37.59-16.07s25.25-10.15,37.68-15.54a282.19,282.19,0,0,0,36-18.54c11.44-7.11,22-15.58,32.18-24.5s20.26-18.1,30.44-27.14l1.41-1.26L406,90.63l2.14,2.14,1.51,1.51-1.61,1.41c-7.33,6.47-14.61,13-21.71,19.68s-14,13.54-20.71,20.65-13.13,14.41-19.36,21.92l-4.64,5.65-4.58,5.72-9.28,11.48-.19-2.8A31.74,31.74,0,0,1,335,188.84l-1.9-1.2a48.23,48.23,0,0,0,14.78-3.1,82.77,82.77,0,0,0,13.86-6.73q6.68-4,13-8.62c4.25-3,8.41-6.24,12.56-9.46,8.28-6.47,16.47-13.11,24.76-19.63s16.67-13,25.22-19.17S454.58,108.7,463.49,103s17.95-11.21,27.21-16.31l3.47-1.94,3.5-1.86c2.34-1.23,4.66-2.51,7-3.71,4.73-2.36,9.43-4.8,14.23-7,9.53-4.61,19.28-8.72,29.06-12.74l1.58-.65.88,1.48L552,62.94l1.21,2-2.2.89c-9.74,3.93-19.45,8-28.93,12.49-4.79,2.17-9.45,4.59-14.16,6.92l-7,3.66-3.48,1.85-3.44,1.92c-9.21,5.06-18.2,10.51-27,16.2s-17.49,11.66-26,17.89-16.8,12.66-25,19.22-16.42,13.23-24.74,19.77c-4.19,3.24-8.37,6.5-12.71,9.58-2.13,1.58-4.36,3-6.56,4.55l-3.38,2.16-1.69,1.07-1.74,1a84.93,84.93,0,0,1-14.57,7,57.11,57.11,0,0,1-16,3.46l1.78-2.69A64.75,64.75,0,0,1,340,208.17a57.28,57.28,0,0,1,.14,8.39,77.12,77.12,0,0,1-1,8.25c-.92,5.42-2.19,10.68-3.16,15.92a80,80,0,0,0-1.61,15.66,11.19,11.19,0,0,0,.5,3.34,1.72,1.72,0,0,0,.47.78.48.48,0,0,0,.19.09,1.22,1.22,0,0,0,.47,0,43.59,43.59,0,0,0,7.6-1A136.69,136.69,0,0,0,358.91,255c5-1.78,10-3.75,15-5.85,2.47-1.05,4.92-2.13,7.34-3.26,1.22-.56,2.43-1.13,3.63-1.72l1.93-.95Z" fill="#efefef"/><path d="M315.94,187.61c-.67,1-1.39,2.07-2.19,3.11s-1.7,2.08-2.48,2.92L307,198.1q-4.26,4.43-8.65,8.73c-5.87,5.73-11.93,11.27-18.2,16.56a260.25,260.25,0,0,1-40.32,28.24,202.42,202.42,0,0,1-45.52,18.9,187.16,187.16,0,0,1-48.86,6.68l-3,0,1.13-2.77A113.15,113.15,0,0,1,161,245.9a168,168,0,0,1,23.81-23.29c4.35-3.46,8.81-6.76,13.43-9.85a148.15,148.15,0,0,1,14.37-8.46c9.8-5.11,19.79-9.8,29.87-14.24,20.14-8.92,40.69-16.81,60.75-25.57s39.56-18.88,56.51-32.53l1.38-1.11,1.25,1.25.53.53,1.39,1.39-1.39,1.4c-6.76,6.8-13.28,13.92-19.67,21.12-3.18,3.61-6.37,7.25-9.37,10.94s-6.07,7.59-9.41,11.2l-.92,1-1.26-.51a19.82,19.82,0,0,0-2.14-.8,3.45,3.45,0,0,0-.81-.12c-.29,0-.69,0-1,.06a4.43,4.43,0,0,0-3.11,1.48,6.32,6.32,0,0,0-1.14,3.6l0,.54c0,.19,0,.27,0,.4a2.58,2.58,0,0,0,.17.69,2.48,2.48,0,0,0,.37.62,3.23,3.23,0,0,0,.25.29l.15.14A2.85,2.85,0,0,1,315.94,187.61Zm-4,.32a1.36,1.36,0,0,0,.43,1.13l-.32-.29c-.2-.21-.4-.43-.58-.66a6.5,6.5,0,0,1-.91-1.58,6.29,6.29,0,0,1-.48-2.63l0-.73a10.16,10.16,0,0,1,2-5.89,7.66,7.66,0,0,1,2.69-2.08,9.83,9.83,0,0,1,3.07-.83,15.24,15.24,0,0,1,1.53-.07,7.27,7.27,0,0,1,1.71.25,21,21,0,0,1,2.62,1l-2.18.49c3.23-3.47,6.25-7.19,9.27-10.95s6.27-7.45,9.47-11.09c6.43-7.26,13-14.41,19.82-21.33v2.79l-.54-.54,2.63.15A200.68,200.68,0,0,1,334.6,153.5c-9.67,5.41-19.62,10.2-29.72,14.66-20.21,8.82-40.71,16.69-60.75,25.57-10,4.41-19.94,9.07-29.63,14.12a144.46,144.46,0,0,0-14,8.25c-4.51,3-8.88,6.25-13.14,9.63a164.63,164.63,0,0,0-23.22,22.72A108.73,108.73,0,0,0,147.35,276l-1.87-2.75a183.43,183.43,0,0,0,47.81-6.53,198.69,198.69,0,0,0,44.61-18.53,256.65,256.65,0,0,0,39.7-27.82q9.28-7.83,18-16.36c2.9-2.83,5.75-5.72,8.57-8.64l4.18-4.42a14.92,14.92,0,0,1,1.66-1.57C310.57,188.87,311.23,188.43,311.94,187.93Z" fill="#efefef"/><path d="M315.56,187.62a2.2,2.2,0,0,1-1.35-.82,2,2,0,0,1-.27-.44l0-.05-.09-.22-.16-.42a7.51,7.51,0,0,1-.25-.91,4.05,4.05,0,0,1-.09-.54,4.3,4.3,0,0,1,0-.59c0-.28,0-.56.06-.85a7.32,7.32,0,0,1,1.23-3.55,5.4,5.4,0,0,1,3.59-2.13,6.34,6.34,0,0,1,.95-.09,3.15,3.15,0,0,1,.6,0l.54.08a8,8,0,0,1,1.76.61l2.31,1.1-1.7,2a34.78,34.78,0,0,1-3.46,3.63C318,185.51,316.74,186.54,315.56,187.62Zm.51-4c.6-1,1.17-2,1.72-2.92a13.34,13.34,0,0,1,1.89-2.53l.6,3.05a4.39,4.39,0,0,0-.83-.31l-.15,0s0,0-.08,0a2,2,0,0,0-.43,0,1.42,1.42,0,0,0-1.05.57,3.29,3.29,0,0,0-.47,1.63,4.87,4.87,0,0,0,0,.54c0,.14,0,.06,0,.1l0,.14c0,.12.08.27.13.42l.09.21.05.1v0a1.14,1.14,0,0,0-.22-.36A1.85,1.85,0,0,0,316.07,183.64Z" fill="#efefef"/><path d="M317.61,188.23c.8-1.28,1.64-2.64,2.58-4s1.94-2.64,2.95-3.86l1.37-1.65,1.5,1.51a22.31,22.31,0,0,1,3.15,4.12,24.32,24.32,0,0,1,2.17,4.65l.89,2.58-2.77,0a24.38,24.38,0,0,1-5.39-.51c-.88-.19-1.76-.38-2.65-.63-.44-.12-.88-.26-1.32-.4l-.67-.23-.08,0-.18-.07a3.07,3.07,0,0,1-1.55-1.52Zm3.9-.92a1.24,1.24,0,0,0-.33-.89,1.13,1.13,0,0,0-.35-.26h0l.07,0,.52.22a9.77,9.77,0,0,0,1.08.36,17.64,17.64,0,0,0,2.29.51,37.1,37.1,0,0,0,4.69.4l-1.88,2.61a18.92,18.92,0,0,0-4.3-7.28l2.86-.13a23.14,23.14,0,0,1-2.13,2.28C323.25,185.85,322.4,186.55,321.51,187.31Z" fill="#efefef"/><path d="M456.2,244.19c-13.37,6.42-40.65,17.11-47.33,17.11-2.14,0-2.68-.26-2.68-1.33,0-4,9.36-14.44,38.51-36.37l-1.07-1.33c-27.28,10.16-35.83,13.9-54.28,21.92-1.07.54-1.34,1.07-1.34,1.61,0,.8.54,1.07,1.34,1.07,18.72-8.29,27.81-12.3,39.57-16.85l.27.53c-17.65,13.37-26.47,23.27-26.47,30.22,0,2.41,2.14,3.21,4.81,3.21,9.09,0,35-11,48.67-17.11,1.07-.54,1.33-1.07,1.33-1.61C457.53,244.46,457,244.19,456.2,244.19Z" fill="#efefef" stroke="#efefef" stroke-miterlimit="10" stroke-width="4.01"/><path d="M536.68,199.8C600.05,158.09,672,102.74,672,77.87c0-3.74-1.33-6.15-5.08-6.15-11.23,0-39.57,26.21-72.73,59.1-26.74,26.47-45.72,49.2-63.64,69.79-30.48,19.78-58.29,36.09-74.33,43.58-1.07.54-1.34,1.07-1.34,1.61,0,.8.53,1.07,1.34,1.07,15.24-7,40.37-21.4,68.18-39.31-17.65,20.05-35,38.24-59.36,55.88l1.6,3.21c21.13-11.76,39.58-22.19,55.62-30.75a11.42,11.42,0,0,1,4.55,9.36c0,6.15-5.08,14.44-5.08,18.18,0,2.41,2.14,3.21,4.81,3.21,9.09,0,43.59-13.63,56.69-19.78,1.07-.54,1.34-1.07,1.34-1.61,0-.8-.54-1.07-1.34-1.07C570.37,250.61,534.54,264,527.86,264c-2.14,0-2.68-.27-2.68-1.34,0-1.87,5.62-11,5.62-16.58s-2.67-8.82-6.15-11.49c25.67-13.37,45.46-21.93,61.23-24.87l-.27-2.14c-23.79,3.47-63.37,25.13-97.33,44.12l-.26-.54C503.79,238.31,518.23,221.46,536.68,199.8ZM597.11,133c32.36-32.36,58.83-58.56,69.26-58.56,1.33,0,2.67,1.33,2.67,3.74,0,23-66,74.34-126.74,114.71C557,175.74,574.38,155.68,597.11,133Z" fill="#efefef" stroke="#efefef" stroke-miterlimit="10" stroke-width="4.01"/><path d="M650.06,244.19c-13.37,6.42-40.65,17.11-47.33,17.11-2.14,0-2.68-.26-2.68-1.33,0-4,9.36-14.44,38.51-36.37l-1.07-1.33c-27.28,10.16-35.83,13.9-54.28,21.92-1.07.54-1.34,1.07-1.34,1.61,0,.8.54,1.07,1.34,1.07,18.72-8.29,27.81-12.3,39.57-16.85l.27.53c-17.65,13.37-26.47,23.27-26.47,30.22,0,2.41,2.14,3.21,4.81,3.21,9.09,0,35-11,48.67-17.11,1.07-.54,1.33-1.07,1.33-1.61C651.39,244.46,650.86,244.19,650.06,244.19Z" fill="#efefef" stroke="#efefef" stroke-miterlimit="10" stroke-width="4.01"/><path d="M683.5,204.61a3.94,3.94,0,0,0-3.64,4.21,2.3,2.3,0,0,0,2.33,2.33,2.63,2.63,0,0,0,1.45-.29c-2.62,4.79-11,8.72-17.29,10.89l.29,1.16c7.13-2.75,18.6-7.41,19.18-15.1v-.58A2.46,2.46,0,0,0,683.5,204.61Z" fill="#efefef" stroke="#efefef" stroke-miterlimit="10" stroke-width="2.18"/><path d="M737.94,244.19c-17.65,8-30,12.84-42.25,15.24l-.27-.53c13.64-8.29,15.78-23.53,24.6-36.63,11-5.09,13.9-7.49,13.9-9.36,0-.81-.26-1.34-1.07-1.34-2.67,0-6.15,2.14-12.83,8.56C698.9,229,688.73,233,664.4,244.19c-1.07.54-1.33,1.07-1.33,1.61,0,.8.53,1.07,1.33,1.07,24.87-11.77,35.3-16.05,50.54-21.93-9.36,20.05-26.21,37.43-40.38,37.43-4.28,0-7.75-2.4-7.75-5.61a3.93,3.93,0,0,1,.53-1.87,13.89,13.89,0,0,0,3.21.53,5.31,5.31,0,0,0,5.35-5.08c0-1.6-1.07-2.94-3.74-2.94-4,0-7.49,4.28-7.49,9.36,0,4.28,4.55,7.75,10.16,7.75,22.19,0,45.72-9.89,63.11-17.64,1.06-.54,1.33-1.07,1.33-1.61C739.27,244.46,738.74,244.19,737.94,244.19Z" fill="#efefef" stroke="#efefef" stroke-miterlimit="10" stroke-width="4.01"/><path d="M511.86,316.8a11.38,11.38,0,0,1-8.89-4l1.32-1.22a9.87,9.87,0,0,0,7.77,3.56c3.86,0,8.74-2.29,8.74-8,0-4.72-2.59-6.6-6.45-8.33l-3.76-1.68c-3.86-1.73-6.81-4.11-6.81-8.84,0-5.54,4.57-9.25,10-9.25A9.94,9.94,0,0,1,522,283l-1.27,1.22a8.45,8.45,0,0,0-7-3.5c-5.23,0-8.18,3.4-8.18,7.57,0,4,2.44,5.94,5.69,7.37l3.76,1.62c4.47,1.93,7.57,4.32,7.57,9.81C522.58,313.29,517.14,316.8,511.86,316.8Z" fill="#efefef" stroke="#efefef" stroke-miterlimit="10" stroke-width="0.33"/><path d="M553.47,315.93V297.69H532.13v18.24h-1.78V280.06h1.78V296h21.34V280.06h1.78v35.87Z" fill="#efefef" stroke="#efefef" stroke-miterlimit="10" stroke-width="0.33"/><path d="M565.61,315.93V280h21v1H566.73v15.8h18.69v1H566.73v17.13H587.4v1Z" fill="#efefef" stroke="#efefef" stroke-miterlimit="10" stroke-width="0.67"/><path d="M614.08,316.8a11.39,11.39,0,0,1-8.9-4l1.33-1.22a9.87,9.87,0,0,0,7.77,3.56c3.86,0,8.74-2.29,8.74-8,0-4.72-2.59-6.6-6.45-8.33l-3.76-1.68c-3.87-1.73-6.81-4.11-6.81-8.84,0-5.54,4.57-9.25,10-9.25a9.94,9.94,0,0,1,8.18,3.86l-1.27,1.22a8.45,8.45,0,0,0-7-3.5c-5.24,0-8.18,3.4-8.18,7.57,0,4,2.43,5.94,5.69,7.37l3.76,1.62c4.47,1.93,7.57,4.32,7.57,9.81C624.8,313.29,619.36,316.8,614.08,316.8Z" fill="#efefef" stroke="#efefef" stroke-miterlimit="10" stroke-width="0.33"/><path d="M655.69,315.93V297.69H634.35v18.24h-1.78V280.06h1.78V296h21.34V280.06h1.78v35.87Z" fill="#efefef" stroke="#efefef" stroke-miterlimit="10" stroke-width="0.33"/><path d="M667.82,315.93V280h21v1H668.94v15.8h18.7v1h-18.7v17.13h20.68v1Z" fill="#efefef" stroke="#efefef" stroke-miterlimit="10" stroke-width="0.67"/><path d="M704.86,315.93h-7.47V280.06H705c11.13,0,20.38,3.76,20.38,17.17C725.34,311,716.45,315.93,704.86,315.93Zm.16-34.14h-5.85V314.2h5.74c9.25,0,18.7-3.35,18.7-17S712.84,281.79,705,281.79Z" fill="#efefef" stroke="#efefef" stroke-miterlimit="10" stroke-width="0.33"/><path d="M447.59,219.52l-1.72-10.88c-1.25-8,9.62-9.68,10.88-1.71,8.37-1.31,10.08,9.56,1.71,10.87Z" fill="#efefef" stroke="#efefef" stroke-miterlimit="10"/><path d="M641.45,219.52l-1.72-10.88c-1.25-8,9.62-9.68,10.88-1.71,8.37-1.31,10.08,9.56,1.71,10.87Z" fill="#efefef" stroke="#efefef" stroke-miterlimit="10"/></svg>