<svg xmlns="http://www.w3.org/2000/svg" viewBox="0 0 732.67 719.5"><path d="M693.15,281.5,635.34,613.56a81.84,81.84,0,0,1-80.78,67.94H178.11a81.84,81.84,0,0,1-80.78-67.94L39.52,281.5H693.15m9.51-38H30A30,30,0,0,0,.45,278.64L59.89,620.08A120,120,0,0,0,178.11,719.5H554.56a120,120,0,0,0,118.22-99.42l59.44-341.44a30,30,0,0,0-29.56-35.14Z" fill="#fff"/><path d="M502.33,243.5V155a136,136,0,0,0-272,0v88.5" fill="none" stroke="#fff" stroke-linecap="round" stroke-miterlimit="10" stroke-width="38"/><line x1="235.75" y1="439" x2="496.92" y2="439" fill="none" stroke="#fff" stroke-linecap="round" stroke-miterlimit="10" stroke-width="30.37"/><text transform="translate(243.82 623.74)" font-size="150" fill="#fff" stroke="#fff" stroke-miterlimit="10" stroke-width="3" font-family="IvyPrestoHeadline-Thin, IvyPresto Headline" font-weight="200"><tspan letter-spacing="-0.01em">K</tspan><tspan x="86.7" y="0">SS</tspan></text></svg>