<svg xmlns="http://www.w3.org/2000/svg" viewBox="0 0 732.67 710.5">
	<path d="M702.66,254.5a10,10,0,0,1,9.85,11.71L653.08,607.65a100,100,0,0,1-98.52,82.85H178.11a100,100,0,0,1-98.52-82.85L20.16,266.21A10,10,0,0,1,30,254.5H702.66m0-20H30A30,30,0,0,0,.45,269.64L59.89,611.08A120,120,0,0,0,178.11,710.5H554.56a120,120,0,0,0,118.22-99.42l59.44-341.44a30,30,0,0,0-29.56-35.14Z" fill="#fff" />
	<path d="M503.83,234.5V146a136,136,0,0,0-272,0v88.5" fill="none" stroke="#fff" stroke-miterlimit="10" stroke-width="50" />
	<line x1="164.33" y1="317.5" x2="573.33" y2="317.5" fill="none" stroke="#fff" stroke-linecap="round" stroke-miterlimit="10" stroke-width="0" />
</svg>
